<svg xmlns="http://www.w3.org/2000/svg" width="28.357" height="16" viewBox="0 0 28.357 16">
  <g id="OLX" transform="translate(-256.802 -350.283)">
    <path id="Path_5" data-name="Path 5" d="M295.835,372.55c.435-.058.877-.01,1.315-.026a2.623,2.623,0,0,1,.814.056.752.752,0,0,1,.446.717q0,3.338,0,6.675c.006.208-.034.451.109.619.089.117.242.11.37.115.8,0,1.6,0,2.4,0a.743.743,0,0,1,.786.8c0,.491.008.984,0,1.476a.724.724,0,0,1-.729.7c-1.79,0-3.58,0-5.369,0a.742.742,0,0,1-.682-.8q0-4.785,0-9.569a.756.756,0,0,1,.545-.752Z" transform="translate(-27.334 -22.237)" fill="#aeafae"/>
    <path id="Path_6" data-name="Path 6" d="M322.139,377.048a1.611,1.611,0,0,1,1.129-.618,1.489,1.489,0,0,1,.569.119,1.633,1.633,0,0,1,.118,1.139,4.115,4.115,0,0,1-.882,1.611c-.648.868-1.233,1.786-1.827,2.7-.123.2-.262.388-.378.593-.068.073.012.151.045.216,1.223,1.918,2.437,3.844,3.659,5.763a1.969,1.969,0,0,1,.448,1.178.742.742,0,0,1-.468.608,9.453,9.453,0,0,1-2.345.694,1.239,1.239,0,0,1-1.3-.748c-.664-1.5-1.392-2.959-2.1-4.434-.844,1.337-1.665,2.69-2.49,4.039a1.568,1.568,0,0,1-.618.584.488.488,0,0,1-.506-.029A2.041,2.041,0,0,1,314.8,390a12.234,12.234,0,0,1-.779-1.3,1.74,1.74,0,0,1-.066-1.329,2.879,2.879,0,0,1,.57-1.026c.944-1.149,1.883-2.3,2.829-3.45-.644-1.348-1.308-2.685-1.964-4.027a2.447,2.447,0,0,1-.229-1.211,1.014,1.014,0,0,1,.438-.832,1.312,1.312,0,0,1,1.331-.039,1.489,1.489,0,0,1,.489.51c.653,1.037,1.312,2.069,1.966,3.1.926-1.108,1.831-2.235,2.75-3.35Z" transform="translate(-39.863 -24.784)" fill="#aeafae"/>
    <path id="Path_7" data-name="Path 7" d="M265.724,377.656a4.384,4.384,0,0,1,2.934.666,6.253,6.253,0,0,1,2.438,3.18,8.245,8.245,0,0,1,.209,4.862,6.584,6.584,0,0,1-2.356,3.646,4.36,4.36,0,0,1-5.418-.079,6.743,6.743,0,0,1-2.343-3.962,8.115,8.115,0,0,1,.685-5.343,5.837,5.837,0,0,1,2.349-2.476,4.5,4.5,0,0,1,1.5-.495Zm.15,2.125a2.376,2.376,0,0,0-1.235,1.075,6.016,6.016,0,0,0-.782,2.377,7.663,7.663,0,0,0,.4,3.682,3.462,3.462,0,0,0,1.184,1.63,1.482,1.482,0,0,0,1.451.137,2.535,2.535,0,0,0,1.052-1.007,6.027,6.027,0,0,0,.779-2.355,7.654,7.654,0,0,0-.411-3.73,3.543,3.543,0,0,0-1.105-1.557,1.486,1.486,0,0,0-1.335-.252Z" transform="translate(-4.21 -25.559)" fill="#aeafae"/>
  </g>
</svg>
