<svg xmlns="http://www.w3.org/2000/svg" width="16.025" height="16.053" viewBox="0 0 16.025 16.053">
  <path id="Icon_Phone" data-name="Icon Phone" d="M12.441,4.367A3.584,3.584,0,0,1,15.272,7.2M12.441,1.5a6.451,6.451,0,0,1,5.7,5.691m-.717,5.72v2.15a1.433,1.433,0,0,1-1.562,1.433,14.184,14.184,0,0,1-6.185-2.2,13.976,13.976,0,0,1-4.3-4.3,14.184,14.184,0,0,1-2.2-6.214A1.433,1.433,0,0,1,4.6,2.217H6.75A1.433,1.433,0,0,1,8.184,3.45a9.2,9.2,0,0,0,.5,2.014,1.433,1.433,0,0,1-.323,1.512l-.91.91a11.468,11.468,0,0,0,4.3,4.3l.91-.91a1.433,1.433,0,0,1,1.512-.323,9.2,9.2,0,0,0,2.014.5A1.433,1.433,0,0,1,17.422,12.91Z" transform="translate(-2.667 -0.948)" fill="none" stroke="#f5792f" stroke-linecap="round" stroke-linejoin="round" stroke-width="1"/>
</svg>
